HIERARCHY
ROOT Hips
{
 OFFSET 0.000000 0.000000 0.000000
 CHANNELS 6 Xposition Yposition Zposition Yrotation Xrotation Zrotation
 JOINT Chest
 {
  OFFSET 0.000000 11.815222 -1.312803
  CHANNELS 3 Yrotation Xrotation Zrotation
  JOINT Chest2
  {
   OFFSET 0.000000 10.795478 0.000000
   CHANNELS 3 Yrotation Xrotation Zrotation
   JOINT Chest3
   {
    OFFSET 0.000000 9.863942 0.000000
    CHANNELS 3 Yrotation Xrotation Zrotation
    JOINT Chest4
    {
     OFFSET 0.000000 9.852922 0.000000
     CHANNELS 3 Yrotation Xrotation Zrotation
     JOINT Neck
     {
      OFFSET 0.000000 14.257742 0.000000
      CHANNELS 3 Yrotation Xrotation Zrotation
      JOINT Head
      {
       OFFSET 0.000000 10.572167 0.000000
       CHANNELS 3 Yrotation Xrotation Zrotation
       End Site
       {
        OFFSET 0.000000 20.709031 0.000000
       }
      }
     }
     JOINT RightCollar
     {
      OFFSET -3.101757 7.992193 0.000000
      CHANNELS 3 Yrotation Xrotation Zrotation
      JOINT RightShoulder
      {
       OFFSET -17.799824 0.000000 0.000000
       CHANNELS 3 Yrotation Xrotation Zrotation
       JOINT RightElbow
       {
        OFFSET -28.644581 0.000000 0.000000
        CHANNELS 3 Yrotation Xrotation Zrotation
        JOINT RightWrist
        {
         OFFSET -26.037363 0.000000 0.000000
         CHANNELS 3 Yrotation Xrotation Zrotation
         JOINT Prop1
         {
          OFFSET -9.626271 -1.069586 2.139171
          CHANNELS 3 Yrotation Xrotation Zrotation
          End Site
          {
           OFFSET 0.000000 0.000000 52.756942
          }
         }
         End Site
         {
          OFFSET -19.573417 0.000000 0.000000
         }
        }
       }
      }
     }
     JOINT LeftCollar
     {
      OFFSET 3.101757 7.992193 0.000000
      CHANNELS 3 Yrotation Xrotation Zrotation
      JOINT LeftShoulder
      {
       OFFSET 17.799824 0.000000 0.000000
       CHANNELS 3 Yrotation Xrotation Zrotation
       JOINT LeftElbow
       {
        OFFSET 28.644581 0.000000 0.000000
        CHANNELS 3 Yrotation Xrotation Zrotation
        JOINT LeftWrist
        {
         OFFSET 26.037363 0.000000 0.000000
         CHANNELS 3 Yrotation Xrotation Zrotation
         End Site
         {
          OFFSET 19.573417 0.000000 0.000000
         }
        }
       }
      }
     }
    }
   }
  }
 }
 JOINT RightHip
 {
  OFFSET -9.714347 0.000000 0.000000
  CHANNELS 3 Yrotation Xrotation Zrotation
  JOINT RightKnee
  {
   OFFSET 0.000000 -51.506785 0.000000
   CHANNELS 3 Yrotation Xrotation Zrotation
   JOINT RightAnkle
   {
    OFFSET 0.000000 -41.779996 0.000000
    CHANNELS 3 Yrotation Xrotation Zrotation
    JOINT RightToe
    {
     OFFSET 0.000000 -6.787769 15.350800
     CHANNELS 3 Yrotation Xrotation Zrotation
     End Site
     {
      OFFSET 0.000000 -1.827230 7.796180
     }
    }
   }
  }
 }
 JOINT LeftHip
 {
  OFFSET 9.714347 0.000000 0.000000
  CHANNELS 3 Yrotation Xrotation Zrotation
  JOINT LeftKnee
  {
   OFFSET 0.000000 -51.506785 0.000000
   CHANNELS 3 Yrotation Xrotation Zrotation
   JOINT LeftAnkle
   {
    OFFSET 0.000000 -41.779996 0.000000
    CHANNELS 3 Yrotation Xrotation Zrotation
    JOINT LeftToe
    {
     OFFSET 0.000000 -6.787769 15.350800
     CHANNELS 3 Yrotation Xrotation Zrotation
     End Site
     {
      OFFSET 0.000000 -1.827230 7.796180
     }
    }
   }
  }
 }
}
MOTION
Frames: 15
Frame Time: 0.016667
-164.039224 101.412699 114.419617 95.701406 4.668053 0.075894 1.915171 -0.349037 -0.261654 0.862708 -5.982538 -0.115478 0.858016 -0.162764 -0.027904 0.641397 5.714570 -0.020745 1.021476 14.637685 -0.266049 2.018853 -8.833384 -0.889812 2.547628 3.206922 -0.192949 4.779662 -12.061068 82.706132 6.094228 54.357861 -3.688476 3.039827 8.730024 -6.429948 -104.666680 -65.879633 104.232552 3.376715 5.681893 -3.768944 -7.404551 -13.614591 -77.520093 -3.720605 47.625082 2.325433 -1.571990 -0.089658 14.009189 -0.683227 -6.371777 0.665385 1.146127 10.354481 -1.309482 -7.268416 -8.228309 0.705079 0.010195 0.517915 0.820471 1.243150 -7.938973 0.908603 -0.322456 10.226263 0.564730 3.744735 -6.518977 -4.326552 0.030582 0.599366 2.372607
-164.153778 101.355099 114.517267 95.649600 4.625778 0.245073 1.990661 -0.099231 -0.354649 0.900702 -5.871945 -0.158024 0.895982 -0.052230 -0.066595 0.666893 5.797410 -0.050065 1.069726 14.857968 -0.356932 2.140074 -8.421560 -1.074146 2.512992 3.302631 -0.393249 4.931349 -12.609724 82.621053 6.971378 54.294668 -2.858001 3.012102 8.678407 -6.494225 -105.237362 -65.798687 104.450928 3.421297 5.692793 -3.746852 -7.702766 -14.243086 -77.086776 -4.004418 47.284854 2.057758 -1.509537 -0.000351 13.793199 -0.887687 -6.455604 0.517901 1.802854 10.528486 -1.157823 -7.599475 -8.614338 0.827387 0.002032 0.221393 0.345928 1.351063 -8.679701 0.796765 -0.479437 11.787550 0.563095 3.908202 -7.080736 -4.839192 0.038876 0.586093 2.658359
-164.287675 101.298431 114.623534 95.705135 4.603774 0.376686 2.041549 0.160017 -0.419520 0.926594 -5.757038 -0.188104 0.921930 0.062637 -0.094046 0.684249 5.883516 -0.070941 1.112378 15.118238 -0.455403 2.252023 -7.935181 -1.268950 2.507084 3.360275 -0.601014 5.109690 -13.133355 82.549353 7.767635 54.097760 -2.166649 2.997042 8.641178 -6.518683 -105.806909 -65.733023 104.660736 3.453760 5.666301 -3.722775 -7.920337 -14.937587 -76.653693 -4.333683 47.119487 1.759396 -1.455971 0.063083 13.675574 -1.013378 -6.552397 0.406821 2.299648 10.669264 -1.004409 -7.968813 -8.938357 0.903377 0.000000 0.000000 0.000000 1.335559 -9.633149 0.763321 -0.499762 13.686155 0.524863 4.027053 -7.666226 -5.448972 0.056669 0.643501 3.041458
-164.452767 101.234019 114.751776 95.930431 4.622733 0.437028 2.046163 0.414858 -0.434934 0.929695 -5.643844 -0.196080 0.925203 0.175827 -0.101707 0.686118 5.968397 -0.076900 1.151059 15.446055 -0.570286 2.360190 -7.322816 -1.490416 2.554477 3.348535 -0.819707 5.296554 -13.574831 82.542746 8.398117 53.757249 -1.755470 3.007035 8.641945 -6.475932 -106.433299 -65.678498 104.920824 3.463774 5.576976 -3.684393 -7.962910 -15.667695 -76.251446 -4.757389 47.247717 1.409424 -1.417774 0.075845 13.723406 -1.000921 -6.696850 0.369658 2.508194 10.797258 -0.849968 -8.376409 -9.170670 0.871047 0.000222 -0.049893 -0.085874 1.100834 -10.904471 0.866639 -0.281696 16.114925 0.467948 4.047116 -8.272332 -6.231424 0.107817 0.913049 3.877420
-164.637202 101.170538 114.888636 96.263224 4.661678 0.460003 2.027345 0.678807 -0.420936 0.921026 -5.526458 -0.190928 0.916766 0.293227 -0.097434 0.680113 6.056455 -0.073864 1.183201 15.814355 -0.691434 2.456166 -6.634980 -1.718936 2.630386 3.300021 -1.047489 5.511431 -13.991850 82.546771 8.938796 53.290047 -1.494001 3.030090 8.656162 -6.393038 -107.059751 -65.639004 105.173590 3.461960 5.450101 -3.644282 -7.922730 -16.467180 -75.858659 -5.243177 47.547537 1.013558 -1.388708 0.062630 13.869301 -0.910115 -6.852941 0.367475 2.556225 10.891890 -0.695575 -8.821440 -9.341314 0.792136 0.000175 -0.024944 -0.042938 0.733795 -12.388783 1.051296 0.073062 18.882851 0.406133 4.013392 -8.897997 -7.110039 0.188173 1.245297 4.812964
-164.813758 101.142953 115.006726 96.620132 4.674070 0.469249 2.010279 0.986968 -0.397331 0.912709 -5.389384 -0.181657 0.908710 0.430313 -0.089006 0.674711 6.159283 -0.067722 1.198850 16.135334 -0.781270 2.509958 -6.036066 -1.883388 2.669916 3.275513 -1.251965 5.810295 -14.492618 82.423382 9.507737 52.550918 -1.176616 3.037210 8.626166 -6.335751 -107.119178 -65.647073 104.872779 3.469252 5.332295 -3.623013 -7.955770 -17.402763 -75.498440 -5.665367 47.751677 0.668623 -1.370341 0.042197 14.050837 -0.764807 -6.946277 0.375258 2.521531 10.917481 -0.583340 -9.279940 -9.445806 0.754251 0.000000 -0.000000 0.000000 0.380721 -13.849965 1.247296 0.418384 21.480901 0.324342 3.993463 -9.478047 -7.814087 0.232109 1.338743 4.982336
-164.974723 101.174762 115.101767 97.008605 4.604865 0.459855 1.996397 1.380644 -0.356488 0.905029 -5.214235 -0.165039 0.901343 0.605475 -0.073165 0.670383 6.290682 -0.056043 1.191773 16.370588 -0.825119 2.506578 -5.598205 -1.956113 2.631999 3.293368 -1.418414 6.300611 -15.121984 82.069428 10.170170 51.371554 -0.709068 3.009050 8.516597 -6.313478 -106.328980 -65.744673 103.720319 3.495908 5.236614 -3.643796 -8.138169 -18.551679 -75.169273 -5.930166 47.798682 0.441452 -1.368876 0.024576 14.275539 -0.525491 -6.910232 0.402407 2.404446 10.861612 -0.536597 -9.809427 -9.476167 0.791750 0.000000 -0.000000 -0.000000 0.046667 -15.263852 1.440307 0.738381 23.936162 0.201497 4.047534 -10.034012 -8.223211 0.174578 0.980037 3.653032
-165.127809 101.242468 115.178038 97.421143 4.509411 0.435816 1.984999 1.818271 -0.304444 0.897870 -5.019509 -0.143604 0.894520 0.800213 -0.052453 0.666815 6.436769 -0.040706 1.170167 16.557861 -0.837377 2.466154 -5.250757 -1.966277 2.557752 3.334333 -1.559090 6.878367 -15.826848 81.573999 10.829621 49.917137 -0.218688 2.964531 8.363417 -6.318059 -104.955809 -65.874179 101.998567 3.530722 5.150575 -3.684046 -8.397695 -19.835204 -74.868400 -6.120528 47.753621 0.275143 -1.379595 0.000150 14.535857 -0.231918 -6.812215 0.442447 2.204523 10.737665 -0.533972 -10.352893 -9.439478 0.869267 0.000000 0.000000 0.000000 -0.274286 -16.654805 1.640871 1.052930 26.222287 0.059822 4.123322 -10.546971 -8.462595 0.070508 0.409920 1.551092
-165.268930 101.310536 115.220987 97.751898 4.506217 0.435054 1.996718 2.211279 -0.283378 0.902408 -4.844760 -0.135902 0.899320 0.974953 -0.044286 0.671008 6.567834 -0.034813 1.146840 16.723164 -0.825063 2.414564 -4.944815 -1.930945 2.505774 3.402034 -1.681623 7.279659 -16.572690 81.096693 11.375491 48.541382 0.187087 2.932491 8.216898 -6.388304 -103.275943 -65.922249 100.051225 3.562970 5.082088 -3.695000 -8.668013 -21.084502 -74.612057 -6.359288 47.540613 0.095565 -1.387759 -0.041888 14.746995 -0.026553 -6.777161 0.444558 1.998465 10.549335 -0.550012 -10.715003 -9.353657 0.970320 0.000000 0.000000 0.000000 -0.442318 -17.860638 1.812074 1.262443 27.748655 -0.088849 4.128457 -10.893830 -8.626219 0.000000 0.000000 0.000000
-165.397966 101.370688 115.223204 97.958651 4.647700 0.478151 2.044519 2.520260 -0.313026 0.925450 -4.707592 -0.150673 0.922507 1.112082 -0.056713 0.687444 6.670660 -0.044445 1.124071 16.880645 -0.783714 2.354256 -4.654135 -1.842462 2.505225 3.522112 -1.788807 7.371560 -17.368793 80.663158 11.852668 47.414694 0.580710 2.933497 8.096098 -6.574429 -101.496339 -65.809922 98.092227 3.604421 5.035677 -3.657775 -8.922546 -22.259015 -74.429526 -6.667868 47.071686 -0.109428 -1.387497 -0.112801 14.866834 0.018559 -6.840446 0.380626 1.805616 10.257922 -0.580688 -10.793507 -9.219636 1.115868 0.000000 0.000000 0.000000 -0.349900 -18.814959 1.947913 1.254102 28.205050 -0.317753 3.945565 -11.004377 -8.737380 -0.013686 -0.094103 -0.370340
-165.515037 101.431202 115.192099 98.083953 4.881122 0.545745 2.113731 2.785278 -0.376123 0.959716 -4.590131 -0.180340 0.956865 1.229487 -0.082898 0.711234 6.758669 -0.064471 1.101126 17.015863 -0.718003 2.285960 -4.405401 -1.709666 2.527776 3.668722 -1.878730 7.282039 -18.212300 80.266565 12.233342 46.367918 0.916921 2.950594 7.981915 -6.824383 -99.458511 -65.601581 95.955894 3.644680 5.006047 -3.590693 -9.187082 -23.398317 -74.289134 -7.013580 46.434354 -0.315595 -1.383695 -0.201611 14.938132 -0.024509 -6.965813 0.277103 1.606900 9.902394 -0.627709 -10.690959 -9.036488 1.286526 0.000000 0.000000 0.000000 -0.096803 -19.584496 2.049539 1.139900 27.900845 -0.582986 3.694809 -10.950094 -8.770622 -0.005748 -0.047033 -0.185219
-165.616410 101.481389 115.135346 98.149026 5.167002 0.616660 2.182740 3.037224 -0.460741 0.995071 -4.478598 -0.219598 0.992318 1.340959 -0.118562 0.735151 6.842206 -0.091667 1.085397 17.112258 -0.649485 2.231160 -4.228554 -1.575280 2.545871 3.768380 -1.953585 7.136412 -19.057666 80.027130 12.333684 45.249884 0.948738 2.955487 7.866930 -7.022932 -96.898878 -65.395865 93.424746 3.640831 4.985998 -3.499318 -9.473144 -24.453890 -74.113266 -7.440705 45.814169 -0.545563 -1.377174 -0.285788 15.003404 -0.081710 -7.169549 0.161837 1.421092 9.602828 -0.674481 -10.518923 -8.819825 1.405608 0.000000 0.000000 0.000000 0.147752 -20.206592 2.094486 1.149506 27.174366 -0.707563 3.637967 -10.820496 -8.737509 0.000000 0.000000 0.000000
-165.697135 101.523192 115.051948 98.157167 5.530431 0.700559 2.252507 3.257505 -0.575849 1.032388 -4.381309 -0.272352 1.029705 1.438177 -0.167522 0.759527 6.915022 -0.128903 1.073694 17.172002 -0.584667 2.186072 -4.119454 -1.450095 2.545750 3.780664 -2.010206 6.893016 -19.854128 80.049868 12.061738 44.021882 0.566514 2.929801 7.743791 -7.117518 -93.554684 -65.224244 90.288051 3.570585 4.978225 -3.367993 -9.785030 -25.370986 -73.873571 -8.015975 45.264002 -0.834568 -1.364692 -0.360765 15.069307 -0.138225 -7.480996 0.024522 1.281854 9.370745 -0.706315 -10.328886 -8.556164 1.433572 0.000000 0.000000 0.000000 0.410391 -20.678781 2.022863 1.326558 25.959598 -0.594738 3.908599 -10.682804 -8.615750 0.000000 0.000000 0.000000
-165.762161 101.554667 114.942902 98.105353 5.946544 0.786924 2.320988 3.464595 -0.713599 1.070405 -4.290012 -0.335159 1.067791 1.529403 -0.226465 0.783695 6.983316 -0.173692 1.068804 17.193117 -0.517915 2.153751 -4.081894 -1.324611 2.541857 3.745615 -2.052201 6.590695 -20.653338 80.238886 11.563498 42.719524 -0.072161 2.889001 7.619696 -7.161301 -89.706655 -64.985531 86.774828 3.457975 4.980684 -3.209729 -10.120467 -26.202827 -73.590191 -8.673053 44.730138 -1.145000 -1.349057 -0.431084 15.129187 -0.208429 -7.871369 -0.123163 1.155331 9.194622 -0.738225 -10.069109 -8.259220 1.410215 0.000000 0.000000 0.000000 0.663963 -21.002462 1.897643 1.610232 24.319939 -0.358315 4.364174 -10.473807 -8.407240 0.000000 0.000000 0.000000
-165.822605 101.559291 114.818876 98.004382 6.300883 0.824231 2.363154 3.744508 -0.835983 1.096199 -4.166251 -0.391288 1.093789 1.653119 -0.279968 0.799252 7.075987 -0.214431 1.086119 17.152938 -0.453367 2.164196 -4.157638 -1.212058 2.548504 3.710398 -2.092067 6.480808 -21.564197 80.398391 11.015103 41.305346 -0.812299 2.854394 7.508933 -7.198015 -85.910797 -64.597949 83.331667 3.328730 4.979450 -3.072642 -10.484159 -27.062168 -73.253607 -9.264719 44.239694 -1.399048 -1.341077 -0.487440 15.204939 -0.262124 -8.269007 -0.221935 0.958993 9.159904 -0.800742 -9.695821 -7.985655 1.376881 0.000000 0.000000 0.000000 0.654547 -21.222832 1.889508 2.075423 22.789688 -0.122301 4.854464 -10.087086 -8.158426 0.000000 -0.000000 0.000000
